<svg id="Calque_2" data-name="Calque 2" xmlns="http://www.w3.org/2000/svg" viewBox="0 0 800 800"><path d="M702.28,128.45H97.72A97.83,97.83,0,0,0,0,226.16V573.84a97.83,97.83,0,0,0,97.72,97.71H702.28A97.83,97.83,0,0,0,800,573.84V226.17A97.82,97.82,0,0,0,702.28,128.45ZM654.53,192.2,400,356.18l-254.53-164Zm47.75,415.61H97.72a34,34,0,0,1-34-34V228L380.33,431.56c.43.26.88.44,1.32.69s.92.5,1.39.73a37.19,37.19,0,0,0,7.57,2.95c.26.08.53.11.79.17a37.43,37.43,0,0,0,8.58,1.09H400a36.88,36.88,0,0,0,8.58-1.09c.26-.06.53-.09.79-.17A37.19,37.19,0,0,0,417,433c.47-.23.93-.48,1.39-.73s.89-.43,1.32-.69L736.27,228V573.84A34,34,0,0,1,702.28,607.81Z"/></svg>