<svg id="Calque_2" data-name="Calque 2" xmlns="http://www.w3.org/2000/svg" viewBox="0 0 800 800"><defs><style>.cls-1{fill:#070707;}</style></defs><path class="cls-1" d="M405.9.19A35.31,35.31,0,0,0,402.32,0l-2.44,0-2.2,0a32,32,0,0,0-3.55.19C220.35,4.57,79.46,148.68,79.46,322.86c0,223.85,249,430.53,299,469.68a35,35,0,0,0,43.18,0c49.92-39.15,299-245.83,299-469.68C720.54,148.68,579.69,4.57,405.9.19ZM400,719.85c-67.06-56.73-250.6-227.52-250.6-397C149.4,185.63,261,72.22,398.24,70c.56,0,1.11,0,1.67-.06h.22c.55,0,1.09.06,1.65.06C539,72.22,650.63,185.63,650.63,322.86,650.6,492.33,467.06,663.12,400,719.85Z"/><path class="cls-1" d="M402.33,162A147.82,147.82,0,1,0,550.15,309.79,147.82,147.82,0,0,0,402.33,162Zm0,225.7a77.89,77.89,0,1,1,77.89-77.88A78,78,0,0,1,402.33,387.66Z"/></svg>